<svg width="24" height="24" viewBox="0 0 24 24" fill="none" xmlns="http://www.w3.org/2000/svg">
    <rect width="24" height="24" fill="black" fill-opacity="0"/>
    <rect width="24" height="24" fill="black" fill-opacity="0"/>
    <path d="M17.3767 0H6.62299C2.97108 0 0 2.97122 0 6.62313V17.3769C0 21.0289 2.97108 24 6.62299 24H17.3767C21.0289 24 24 21.0288 24 17.3769V6.62313C24.0001 2.97122 21.0289 0 17.3767 0ZM21.8707 17.3769C21.8707 19.8548 19.8548 21.8706 17.3769 21.8706H6.62299C4.14522 21.8707 2.1294 19.8548 2.1294 17.3769V6.62313C2.1294 4.14537 4.14522 2.1294 6.62299 2.1294H17.3767C19.8546 2.1294 21.8706 4.14537 21.8706 6.62313V17.3769H21.8707Z" fill="white"/>
    <path d="M12 6.46143C8.94606 6.46143 6.46155 8.94599 6.46155 12C6.46155 15.0539 8.94606 17.5383 12 17.5383C15.054 17.5383 17.5385 15.0539 17.5385 12C17.5385 8.94599 15.054 6.46143 12 6.46143ZM12 15.6311C9.99773 15.6311 8.3686 14.0022 8.3686 11.9999C8.3686 9.99744 9.9976 8.36839 12 8.36839C14.0024 8.36839 15.6314 9.99744 15.6314 11.9999C15.6314 14.0022 14.0023 15.6311 12 15.6311Z" fill="white"/>
    <path d="M18 4.61548C17.6362 4.61548 17.2788 4.76275 17.0219 5.02079C16.7638 5.27758 16.6154 5.63506 16.6154 6.00009C16.6154 6.364 16.7639 6.72135 17.0219 6.97939C17.2787 7.23618 17.6362 7.38471 18 7.38471C18.365 7.38471 18.7212 7.23618 18.9793 6.97939C19.2373 6.72135 19.3846 6.36387 19.3846 6.00009C19.3846 5.63506 19.2373 5.27758 18.9793 5.02079C18.7225 4.76275 18.365 4.61548 18 4.61548Z" fill="white"/>
</svg>
