<svg xmlns="http://www.w3.org/2000/svg"><symbol id="icon-facebook" viewBox="0 0 11 24">
    <path fill-rule="evenodd" clip-rule="evenodd" d="M7.3147 24H2.43724V11.9985H0V7.86317H2.43724V5.38046C2.43724 2.00707 3.81271 0 7.72302 0H10.9776V4.13683H8.94351C7.42126 4.13683 7.32067 4.71472 7.32067 5.79323L7.31396 7.86317H11L10.5686 11.9985H7.31396V24H7.3147Z" fill="white"/>
</symbol><symbol id="icon-habr" viewBox="0 0 22 24">
    <path fill-rule="evenodd" clip-rule="evenodd" d="M7.36842 9.81818H15.0526V0H22V24H15.0526V15.2727H7.36842V24H0V0H7.36842V9.81818Z" fill="white"/>
</symbol><symbol id="icon-instagram" viewBox="0 0 24 24">
    <rect width="24" height="24" fill="black" fill-opacity="0"/>
    <rect width="24" height="24" fill="black" fill-opacity="0"/>
    <path d="M17.3767 0H6.62299C2.97108 0 0 2.97122 0 6.62313V17.3769C0 21.0289 2.97108 24 6.62299 24H17.3767C21.0289 24 24 21.0288 24 17.3769V6.62313C24.0001 2.97122 21.0289 0 17.3767 0ZM21.8707 17.3769C21.8707 19.8548 19.8548 21.8706 17.3769 21.8706H6.62299C4.14522 21.8707 2.1294 19.8548 2.1294 17.3769V6.62313C2.1294 4.14537 4.14522 2.1294 6.62299 2.1294H17.3767C19.8546 2.1294 21.8706 4.14537 21.8706 6.62313V17.3769H21.8707Z" fill="white"/>
    <path d="M12 6.46143C8.94606 6.46143 6.46155 8.94599 6.46155 12C6.46155 15.0539 8.94606 17.5383 12 17.5383C15.054 17.5383 17.5385 15.0539 17.5385 12C17.5385 8.94599 15.054 6.46143 12 6.46143ZM12 15.6311C9.99773 15.6311 8.3686 14.0022 8.3686 11.9999C8.3686 9.99744 9.9976 8.36839 12 8.36839C14.0024 8.36839 15.6314 9.99744 15.6314 11.9999C15.6314 14.0022 14.0023 15.6311 12 15.6311Z" fill="white"/>
    <path d="M18 4.61548C17.6362 4.61548 17.2788 4.76275 17.0219 5.02079C16.7638 5.27758 16.6154 5.63506 16.6154 6.00009C16.6154 6.364 16.7639 6.72135 17.0219 6.97939C17.2787 7.23618 17.6362 7.38471 18 7.38471C18.365 7.38471 18.7212 7.23618 18.9793 6.97939C19.2373 6.72135 19.3846 6.36387 19.3846 6.00009C19.3846 5.63506 19.2373 5.27758 18.9793 5.02079C18.7225 4.76275 18.365 4.61548 18 4.61548Z" fill="white"/>
</symbol><symbol id="icon-loader">
    <g fill="none" fill-rule="evenodd">
        <g transform="translate(4 4)" stroke-width="8">
            <circle stroke-opacity=".3" cx="30" cy="30" r="30"/>
            <path d="M60 30c0-9.94-8.06-30-30-30">
                <animateTransform attributeName="transform" type="rotate" from="0 30 30" to="360 30 30" dur="1s" repeatCount="indefinite"/>
            </path>
        </g>
    </g>
</symbol><symbol id="icon-phone" viewBox="0 0 22 22">
    <path fill="none" d="M16.153 14.3293L16.153 14.3293L16.159 14.3313C17.4716 14.7652 18.8539 14.9853 20.2632 14.9853C20.9446 14.9853 21.5 15.5407 21.5 16.2221V20.2632C21.5 20.9446 20.9446 21.5 20.2632 21.5C9.36678 21.5 0.5 12.6332 0.5 1.73684C0.5 1.05539 1.05539 0.5 1.73684 0.5H5.7895C6.47095 0.5 7.02634 1.05539 7.02634 1.73684C7.02634 3.14274 7.24723 4.52469 7.68125 5.84137C7.82261 6.29782 7.70272 6.77752 7.37382 7.10722L7.34924 7.13186L7.32831 7.15967L5.49307 9.5982L5.30185 9.85228L5.45087 10.1332C7.00782 13.068 8.91415 14.9726 11.8658 16.5475L12.1476 16.6978L12.4025 16.5053L14.9001 14.6191L14.9295 14.5969L14.9553 14.5706C15.2166 14.3049 15.7082 14.176 16.153 14.3293Z" stroke="white"/>
</symbol><symbol id="icon-twitter" viewBox="0 0 28 24">
    <path fill-rule="evenodd" clip-rule="evenodd" d="M24.7015 3.79431C25.8881 3.0455 26.7986 1.85815 27.2259 0.443738C26.1149 1.13881 24.8872 1.64149 23.5774 1.91362C22.5321 0.734942 21.0382 0 19.3849 0C16.2129 0 13.6425 2.7127 13.6425 6.05807C13.6425 6.53301 13.6902 6.99581 13.7888 7.43782C9.01614 7.18475 4.78418 4.77539 1.94917 1.10761C1.45448 2.00549 1.1718 3.0455 1.1718 4.15485C1.1718 6.25567 2.18583 8.11036 3.72742 9.1989C2.7857 9.1677 1.89987 8.8921 1.12414 8.44143V8.51596C1.12414 11.4523 3.10289 13.9015 5.73411 14.4562C5.25092 14.5983 4.74473 14.6694 4.21882 14.6694C3.84903 14.6694 3.48747 14.633 3.13905 14.5619C3.86876 16.9678 5.99049 18.7219 8.50502 18.7687C6.53777 20.3946 4.06104 21.3618 1.37066 21.3618C0.907202 21.3618 0.448671 21.3358 0 21.2786C2.54247 22.9964 5.56154 24 8.80578 24C19.3734 24 25.1486 14.7682 25.1486 6.76181C25.1486 6.49834 25.1453 6.2366 25.1338 5.97833C26.2563 5.12379 27.2325 4.05604 28 2.84096C26.9695 3.32284 25.8618 3.64871 24.7015 3.79431Z" fill="white"/>
</symbol><symbol id="icon-vk" viewBox="0 0 32 18">
    <path fill-rule="evenodd" clip-rule="evenodd" d="M17.5693 17.9248C17.5693 17.9248 18.1469 17.8615 18.4427 17.5482C18.7134 17.2612 18.704 16.7195 18.704 16.7195C18.704 16.7195 18.668 14.1903 19.8591 13.8168C21.0329 13.4496 22.5402 16.2628 24.1397 17.3445C25.348 18.1624 26.2651 17.9834 26.2651 17.9834L30.5395 17.9248C30.5395 17.9248 32.7745 17.789 31.7149 16.056C31.6272 15.914 31.0967 14.7736 28.5377 12.4311C25.8566 9.97895 26.2166 10.3755 29.4439 6.13336C31.4097 3.55008 32.1954 1.97295 31.9497 1.29859C31.7165 0.653538 30.2703 0.824831 30.2703 0.824831L25.4591 0.85415C25.4591 0.85415 25.1023 0.806312 24.8378 0.962173C24.5795 1.11495 24.412 1.47142 24.412 1.47142C24.412 1.47142 23.6514 3.46983 22.6356 5.17041C20.493 8.75675 19.6369 8.94657 19.2863 8.72435C18.4708 8.2043 18.6743 6.63797 18.6743 5.52534C18.6743 2.04857 19.2096 0.599526 17.6335 0.224535C17.1107 0.0995374 16.7257 0.0177497 15.3875 0.0038611C13.6706 -0.0131139 12.2182 0.0100339 11.3949 0.40663C10.8471 0.670513 10.4245 1.26001 10.6828 1.29396C11.0005 1.33562 11.7205 1.48531 12.1024 1.99764C12.5954 2.65967 12.5782 4.1442 12.5782 4.1442C12.5782 4.1442 12.8614 8.23671 11.9161 8.74441C11.2682 9.09317 10.3792 8.38177 8.46815 5.12721C7.48995 3.46058 6.75121 1.61802 6.75121 1.61802C6.75121 1.61802 6.60878 1.27389 6.35367 1.08871C6.04534 0.864953 5.61493 0.79551 5.61493 0.79551L1.04321 0.824831C1.04321 0.824831 0.356125 0.843349 0.104141 1.1381C-0.119672 1.39889 0.086924 1.94055 0.086924 1.94055C0.086924 1.94055 3.66636 10.1981 7.72002 14.36C11.4372 18.1748 15.6567 17.9248 15.6567 17.9248H17.5693Z" fill="white"/>
</symbol><symbol id="icon-youtube" viewBox="0 0 28 20">
    <path fill-rule="evenodd" clip-rule="evenodd" d="M11.1364 14.2208V5.77919L18.4545 10.0002L11.1364 14.2208ZM27.4149 3.12306C27.0929 1.89371 26.144 0.925645 24.9394 0.597097C22.7559 0 14 0 14 0C14 0 5.24411 0 3.06059 0.597097C1.85595 0.925645 0.907136 1.89371 0.585136 3.12306C5.96046e-08 5.35113 0 10 0 10C0 10 5.96046e-08 14.6487 0.585136 16.8769C0.907136 18.1063 1.85595 19.0744 3.06059 19.4031C5.24411 20 14 20 14 20C14 20 22.7559 20 24.9394 19.4031C26.144 19.0744 27.0929 18.1063 27.4149 16.8769C28 14.6487 28 10 28 10C28 10 28 5.35113 27.4149 3.12306Z" fill="white"/>
</symbol></svg>